<svg width="18" height="16" viewBox="0 0 18 16" fill="none" xmlns="http://www.w3.org/2000/svg">
<path d="M2.92205 6.03691H15.0778C15.2146 6.03776 15.3498 6.00785 15.4735 5.94939C15.5971 5.89094 15.706 5.80544 15.7922 5.69921C15.8783 5.59298 15.9395 5.46875 15.9712 5.33569C16.0028 5.20264 16.0042 5.06417 15.9751 4.93053C15.7173 3.71388 14.868 2.59761 13.5829 1.79539C12.2978 0.99316 10.6812 0.562012 8.99995 0.562012C7.3187 0.562012 5.69144 1 4.417 1.79539C3.14257 2.59077 2.28255 3.71084 2.02477 4.93053C1.99571 5.06417 1.99706 5.20264 2.02872 5.33569C2.06038 5.46875 2.12155 5.59298 2.2077 5.69921C2.29385 5.80544 2.40278 5.89094 2.52643 5.94939C2.65007 6.00785 2.78528 6.03776 2.92205 6.03691ZM2.61789 5.05675C3.08858 2.84322 5.83135 1.17033 8.99995 1.17033C12.1685 1.17033 14.9113 2.84322 15.3805 5.05675C15.3902 5.10164 15.3897 5.14815 15.3789 5.19279C15.3681 5.23744 15.3473 5.27906 15.3181 5.31453C15.2893 5.3505 15.2527 5.37946 15.2111 5.39922C15.1695 5.41898 15.1239 5.42902 15.0778 5.42859H2.92205C2.87597 5.42902 2.8304 5.41898 2.78878 5.39922C2.74715 5.37946 2.71056 5.3505 2.68176 5.31453C2.65258 5.27906 2.63181 5.23744 2.62101 5.19279C2.61021 5.14815 2.60966 5.10164 2.61941 5.05675H2.61789ZM16.8024 10.3134L13.5662 11.4905L10.6325 10.3172C10.5594 10.2876 10.4776 10.2876 10.4044 10.3172L7.47914 11.4882L4.55083 10.3172C4.48082 10.2904 4.40337 10.2904 4.33336 10.3172L0.987584 11.5339C0.922754 11.5599 0.868864 11.6075 0.834971 11.6686C0.801078 11.7296 0.789249 11.8005 0.801471 11.8693C0.813694 11.9381 0.849223 12.0006 0.902087 12.0463C0.954952 12.0919 1.02193 12.118 1.09176 12.1201C1.12727 12.1201 1.16251 12.1139 1.19593 12.1019L2.61256 11.5879V12.4243C2.61256 13.1503 2.90097 13.8466 3.41434 14.36C3.92772 14.8733 4.624 15.1617 5.35001 15.1617H12.6499C13.3759 15.1617 14.0722 14.8733 14.5855 14.36C15.0989 13.8466 15.3873 13.1503 15.3873 12.4243V11.4761L17.0123 10.8852C17.0881 10.8576 17.1499 10.801 17.184 10.7278C17.2181 10.6547 17.2217 10.571 17.194 10.4952C17.1664 10.4193 17.1098 10.3576 17.0366 10.3235C16.9635 10.2894 16.8798 10.2858 16.804 10.3134H16.8024ZM14.779 12.4243C14.779 12.989 14.5547 13.5305 14.1554 13.9298C13.7561 14.3291 13.2146 14.5534 12.6499 14.5534H5.35001C4.78533 14.5534 4.24378 14.3291 3.84449 13.9298C3.4452 13.5305 3.22089 12.989 3.22089 12.4243V11.3651L4.43221 10.9248L7.36584 12.0981C7.439 12.1277 7.5208 12.1277 7.59396 12.0981L10.5208 10.9271L13.4491 12.0981C13.5191 12.1249 13.5965 12.1249 13.6665 12.0981L14.779 11.6973V12.4243ZM0.787598 8.16604C0.787598 8.08537 0.819643 8.00801 0.876684 7.95096C0.933726 7.89392 1.01109 7.86188 1.09176 7.86188H16.9081C16.9888 7.86188 17.0662 7.89392 17.1232 7.95096C17.1803 8.00801 17.2123 8.08537 17.2123 8.16604C17.2123 8.24671 17.1803 8.32407 17.1232 8.38111C17.0662 8.43816 16.9888 8.4702 16.9081 8.4702H1.09176C1.01109 8.4702 0.933726 8.43816 0.876684 8.38111C0.819643 8.32407 0.787598 8.24671 0.787598 8.16604Z" fill="black"/>
</svg>
