<svg width="14" height="17" viewBox="0 0 14 17" fill="none" xmlns="http://www.w3.org/2000/svg">
<path d="M11.3271 5.87426H11.9112V6.20168C11.5333 8.05548 11.2563 9.94333 11.2563 11.8358V12.4225H10.6598M11.3271 5.87426C11.4842 4.88679 11.6676 3.90325 11.8771 2.92363C11.8994 2.81755 11.9112 2.70885 11.9112 2.60015H2.08882C2.08882 2.70885 2.10061 2.81755 2.12287 2.92363C2.33241 3.90325 2.51577 4.88679 2.67292 5.87426H11.3271ZM10.6598 12.4225C10.621 13.2872 10.6015 14.1526 10.6015 15.0182V15.6966H3.39847V15.0182C3.39847 14.1519 3.37882 13.2869 3.34019 12.4225M10.6598 12.4225H3.34019M3.34019 12.4225H2.74364V11.8358C2.74364 9.94333 2.46665 8.05548 2.08882 6.20168V5.87426H2.67227M0.779175 2.60015V2.27274L1.1629 2.08088C1.75579 1.7844 2.20662 1.26455 2.41623 0.635681H11.5838C11.7934 1.26455 12.2442 1.7844 12.8371 2.08088L13.2208 2.27274V2.60015H0.779175Z" stroke="black" stroke-width="0.654823"/>
</svg>
